<svg id="Layer_1" data-name="Layer 1" xmlns="http://www.w3.org/2000/svg" viewBox="0 0 237.04 307.99"><defs><style>.cls-1{fill:#6d6e71;}.cls-2{fill:#333132;}.cls-3{fill:#414042;}.cls-4{fill:#b99a5b;}</style></defs><rect class="cls-1" y="83.58" width="19.55" height="52.01"/><rect class="cls-2" x="19.55" y="57.14" width="28.58" height="78.44"/><rect class="cls-2" x="68.31" y="27.15" width="28.91" height="108.44"/><rect class="cls-1" x="217.49" y="83.58" width="19.55" height="52.01"/><rect class="cls-2" x="129.67" y="11.7" width="28.6" height="123.89"/><rect class="cls-2" x="154.87" y="6.72" width="28.23" height="128.87"/><rect class="cls-2" x="148.22" y="39.49" width="69.27" height="96.1"/><rect class="cls-2" x="44.73" y="16.31" width="26.25" height="119.27"/><rect class="cls-2" x="95.06" width="37.83" height="135.59"/><path class="cls-3" d="M14.62,83.58C22.18,43.46,65.19,15.76,119,15.76s94.82,27.7,102.37,67.82h10.14c-4-44-53-77.42-112.28-77.42S8.44,39.62,4.49,83.58Z"/><path class="cls-4" d="M130.47,137l13.61,17.17,7.84,9.46q22.79,28.11,22.79,59.48a78.51,78.51,0,0,1-20.12,53.41Q127.07,308,82.59,308q-34.48,0-56.52-21.23T4,232.41Q4,191.88,38.3,164.8q18.2-14.38,33.58-14.39,8,0,13,4.58a15.32,15.32,0,0,1,5,11.84q0,9.76-11.54,16.87l-11.83,7.24a51.79,51.79,0,0,0-17,17.76q-6.73,11.42-6.74,22.51,0,17.6,11.91,29.07t30.25,11.46q20.26,0,35.21-15.16t15-35.73a47,47,0,0,0-6.07-23.67q-6.06-10.65-26.19-33Q88.77,148.66,82.68,137H42.77q-20.42,0-20.42-14.05,0-10.22,7.18-15.76t20.19-5.55H75Q78,72.3,101.8,53.15T158.91,34q25,0,40.76,13.76t15.72,35.66q0,29.15-25,44.68Q176.19,137,145.27,137Zm-17.7-35.36h35.5q30,0,30-17.45,0-6.81-6.14-11t-16.36-4.1A47,47,0,0,0,126.7,79Q113.6,88.89,112.77,101.6Z"/></svg>